<?xml version="1.0" encoding="UTF-8"?>
<svg width="18px" height="18px" viewBox="0 0 18 18" version="1.1" xmlns="http://www.w3.org/2000/svg" xmlns:xlink="http://www.w3.org/1999/xlink">
    <title>编组 9</title>
    <g id="页面-1" stroke="none" stroke-width="1" fill="none" fill-rule="evenodd">
        <g id="分类加购" transform="translate(-327.000000, -249.000000)">
            <g id="编组-9" transform="translate(327.000000, 249.000000)">
                <rect id="矩形" stroke="#979797" fill="#D8D8D8" opacity="0" x="0.5" y="0.5" width="17" height="17"></rect>
                <g id="编组-3" transform="translate(3.000000, 3.000000)" stroke="#333333">
                    <path d="M12,7.71428571 L12,11 C12,11.5522847 11.5522847,12 11,12 L1,12 C0.44771525,12 6.76353751e-17,11.5522847 0,11 L0,1 C-6.76353751e-17,0.44771525 0.44771525,1.01453063e-16 1,0 L4.28571429,0 L4.28571429,0 M7,0 L11,0 C11.5522847,-1.01453063e-16 12,0.44771525 12,1 L12,5 L12,5" id="形状" stroke-width="1.5"></path>
                    <rect id="矩形" fill="#D8D8D8" transform="translate(8.689340, 3.060660) rotate(-315.000000) translate(-8.689340, -3.060660) " x="8.43933983" y="0.0606601718" width="1" height="6"></rect>
                </g>
            </g>
        </g>
    </g>
</svg>